<?xml version="1.0" standalone="no"?>
<!DOCTYPE svg PUBLIC "-//W3C//DTD SVG 20010904//EN"
 "http://www.w3.org/TR/2001/REC-SVG-20010904/DTD/svg10.dtd">
<svg version="1.0" xmlns="http://www.w3.org/2000/svg"
 width="700.000000pt" height="700.000000pt" viewBox="0 0 700.000000 700.000000"
 preserveAspectRatio="xMidYMid meet">
<metadata>
Created by potrace 1.14, written by Peter Selinger 2001-2017
</metadata>
<g transform="translate(0.000000,700.000000) scale(0.100000,-0.100000)"
fill="#000000" stroke="none">
<path d="M1470 6677 c0 -2 -9 -45 -21 -97 -11 -52 -23 -105 -25 -117 -2 -12
-16 -75 -30 -140 -24 -112 -108 -514 -118 -564 -2 -13 -12 -60 -21 -104 -9
-44 -18 -91 -21 -105 -18 -86 -87 -438 -90 -455 -2 -11 -6 -33 -8 -50 -3 -16
-8 -41 -11 -55 -3 -14 -8 -38 -10 -55 -3 -16 -19 -102 -35 -190 -16 -88 -36
-200 -44 -250 -9 -49 -18 -99 -20 -110 -2 -11 -9 -51 -15 -90 -49 -307 -61
-386 -66 -431 -3 -28 -8 -61 -10 -75 -3 -13 -7 -46 -10 -74 -3 -27 -7 -72 -10
-100 -12 -102 -14 -121 -20 -185 -8 -95 -15 -159 -21 -210 -2 -25 -7 -74 -9
-110 -4 -60 -11 -149 -20 -245 -2 -22 -7 -80 -10 -130 -4 -49 -8 -110 -10
-135 -49 -635 1 -1232 136 -1617 71 -202 161 -348 299 -483 172 -169 379 -255
690 -287 99 -10 407 -8 500 3 134 16 149 19 255 49 137 40 235 97 334 193 l85
82 301 -1 301 0 43 -50 c105 -122 264 -205 481 -251 123 -25 200 -32 390 -32
237 0 366 14 541 59 277 72 508 280 651 586 45 95 105 278 124 374 2 11 6 31
9 45 6 29 22 122 29 165 43 263 52 797 22 1220 -13 168 -17 226 -21 265 -2 25
-7 77 -10 115 -15 185 -25 304 -30 345 -2 19 -9 82 -15 140 -6 58 -13 121 -15
140 -5 35 -8 57 -20 160 -3 30 -8 66 -10 80 -2 14 -11 75 -20 135 -8 61 -20
135 -25 165 -5 30 -12 69 -14 85 -25 156 -59 357 -66 385 -5 19 -12 55 -15 80
-4 25 -24 135 -46 245 -22 110 -42 214 -44 230 -3 17 -10 53 -15 80 -6 28 -12
61 -15 75 -3 14 -17 81 -31 150 -14 69 -28 134 -30 145 -5 29 -60 294 -83 405
-11 52 -22 109 -25 125 -5 29 -31 147 -61 285 -8 36 -17 80 -20 98 -3 19 -11
47 -18 63 l-12 30 -193 -130 c-106 -72 -223 -152 -260 -178 -37 -26 -98 -69
-137 -95 -181 -125 -261 -181 -275 -193 -13 -12 -27 -8 -90 24 -173 88 -418
157 -630 178 -149 15 -694 7 -795 -12 -144 -27 -206 -42 -309 -77 -66 -22
-155 -57 -199 -79 -43 -21 -84 -39 -91 -39 -7 0 -104 64 -217 143 -505 353
-679 469 -679 454z m911 -1700 c118 -83 111 -347 -11 -416 -38 -21 -41 -22
-75 -5 -65 31 -105 114 -105 219 0 159 101 265 191 202z m2183 -10 c68 -48 94
-217 47 -321 -22 -50 -36 -65 -84 -92 -25 -13 -31 -13 -63 2 -46 22 -80 68
-93 126 -25 111 -9 203 47 268 46 54 86 59 146 17z m-963 -217 c105 -32 151
-90 135 -175 l-7 -33 -64 4 c-57 3 -68 0 -94 -22 -17 -14 -37 -46 -46 -73 -24
-72 -77 -114 -132 -103 -36 7 -79 56 -98 112 -22 67 -50 85 -134 85 -61 0 -65
2 -71 25 -3 14 -5 31 -4 38 1 6 2 21 3 32 2 33 59 88 109 104 110 37 293 40
403 6z m-1628 -431 c122 -56 226 -104 230 -109 8 -7 -14 -58 -41 -98 -11 -16
-50 0 -494 206 -21 9 -38 21 -38 25 0 12 29 79 41 93 12 15 -1 20 302 -117z
m3213 56 l15 -36 -103 -48 c-265 -125 -419 -191 -429 -185 -11 6 -33 49 -43
81 -7 21 1 27 81 64 133 62 167 77 307 140 145 65 138 66 172 -16z m-2976
-631 l0 -64 -362 0 -363 0 2 47 c1 27 2 55 2 64 1 15 35 17 361 16 l360 0 0
-63z m3128 0 l-1 -64 -362 0 -361 0 2 58 c1 31 2 60 3 63 0 4 163 7 361 7
l359 -1 -1 -63z m-1488 -36 c47 -16 100 -35 118 -41 17 -6 32 -16 32 -22 0 -7
-34 -108 -76 -226 -42 -118 -81 -227 -86 -244 -20 -57 -19 -56 -180 -53 -83 1
-151 5 -153 8 -5 8 161 473 204 574 17 38 25 47 39 41 9 -3 55 -20 102 -37z
m-1643 -414 c14 -30 23 -56 22 -58 -2 -1 -51 -22 -109 -45 -58 -24 -118 -50
-135 -57 -16 -8 -97 -43 -180 -78 -166 -72 -159 -72 -185 8 -15 45 -19 41 100
94 41 19 93 42 115 52 47 21 293 125 315 133 28 10 31 7 57 -49z m2665 -35
c117 -50 243 -105 280 -123 l66 -31 -15 -45 c-8 -25 -19 -50 -25 -57 -8 -10
-259 91 -506 203 -29 13 -57 24 -62 24 -6 0 -10 7 -10 15 0 19 42 105 51 105
4 0 103 -41 221 -91z m-391 -258 c14 -1 16 -21 16 -163 l1 -163 -1078 0 c-593
0 -1082 3 -1086 7 -5 6 -8 176 -5 303 1 20 7 20 1069 18 587 0 1074 -2 1083
-2z m-140 -476 c3 -22 -5 -133 -16 -227 -6 -44 -14 -121 -21 -183 -3 -27 -7
-66 -9 -85 -2 -19 -7 -60 -10 -90 -3 -30 -8 -71 -10 -90 -3 -19 -7 -57 -10
-85 -3 -27 -8 -70 -11 -95 -26 -222 -25 -220 -72 -220 -20 0 -66 -7 -101 -15
-36 -9 -70 -14 -76 -11 -12 4 -13 232 -1 316 3 25 8 68 11 95 3 28 8 71 11 98
5 41 4 47 -13 48 -148 4 -241 33 -503 157 -177 83 -286 108 -425 98 -210 -16
-299 -82 -290 -215 4 -58 11 -117 21 -186 24 -163 32 -233 33 -322 1 -57 0
-103 -3 -103 -3 0 -31 7 -63 15 -32 9 -85 18 -118 22 -33 3 -62 7 -64 10 -5 4
-5 2 -21 133 -15 127 -18 155 -25 225 -3 33 -8 69 -9 80 -2 11 -7 54 -11 95
-4 41 -8 86 -11 100 -2 14 -9 75 -14 135 -6 61 -13 117 -15 125 -2 8 -7 53
-10 100 l-6 86 930 0 c634 0 931 -4 932 -11z"/>
</g>
</svg>
