<?xml version="1.0" encoding="utf-8"?>
<!-- Generator: Adobe Illustrator 26.1.0, SVG Export Plug-In . SVG Version: 6.00 Build 0)  -->
<svg version="1.1" id="Layer_1" xmlns="http://www.w3.org/2000/svg" xmlns:xlink="http://www.w3.org/1999/xlink" x="0px" y="0px"
	 viewBox="0 0 600 600" style="enable-background:new 0 0 600 600;" xml:space="preserve">
<style type="text/css">
	.st0{fill:#FFFFFF;}
	.st1{fill:#AE8803;}
	.st2{fill:#595959;}
</style>
<g transform="translate(0.000000,997.000000) scale(0.100000,-0.100000)">
	<path class="st0" d="M1260.05,9691.47c-2-7-29-130-59-273c-217-1020-348-1736-417-2260c-21-164-73-754-89-1015
		c-47-760,45-1317,267-1623c199-273,454-377,927-377c230,0,419,35,554,104c119,60,228,170,274,276c57,133,64,317,14,422
		c-36,76-129,161-224,205c-71,33-192,63-253,63c-16,0-29,2-29,4c0,1-22,199-50,439c-27,240-50,447-50,461v26h800h800v-25
		c0-24-84-779-96-862c-6-39-9-43-34-43c-61,0-188-32-255-63c-93-44-186-131-221-205s-44-213-20-315c76-322,368-487,862-487
		c283,0,500,41,644,122c384,215,560,687,560,1496c0,252-9,416-50,897c-64,754-153,1273-501,2925c-12,58-25,108-28,112
		c-3,3-176-112-385-257l-378-263l-77,39c-105,54-267,105-418,131c-111,19-164,22-403,22s-292-3-403-22c-151-26-313-77-419-131
		l-76-39l-269,187c-147,102-319,221-381,264C1302.05,9678.47,1263.05,9700.47,1260.05,9691.47z M2060.05,8220.47
		c86-86,68-297-30-344c-35-17-38-17-72,2c-100,55-113,272-22,350C1979.05,8263.47,2019.05,8261.47,2060.05,8220.47z
		 M3914.05,8228.47c43-37,64-100,59-182c-4-85-31-141-81-168c-34-19-37-19-72-2c-98,47-116,258-30,344
		C3831.05,8261.47,3871.05,8263.47,3914.05,8228.47z M3088.05,8043.47c80-25,117-62,117-120c0-60-7-71-38-59c-33,13-91,3-115-19
		c-10-8-23-35-29-59c-12-51-57-93-98-93s-86,42-98,93c-6,24-19,51-29,59c-24,22-82,32-115,19c-31-12-38-1-38,59c0,90,97,138,276,139
		C2996.05,8063.47,3040.05,8058.47,3088.05,8043.47z M1668.05,7682.47c122-56,223-102,225-104c5-4-39-95-47-95
		c-10,0-442,197-450,205c-5,6,36,95,44,95C1443.05,7783.47,1545.05,7737.47,1668.05,7682.47z M4437.05,7738.47c12-24,19-47,17-50
		c-8-8-440-205-450-205c-11,0-52,94-42,98c4,1,105,47,223,102c118,54,218,99,223,100
		C4412.05,7783.47,4425.05,7763.47,4437.05,7738.47z M1895.05,7178.47v-55h-310h-310v55v55h310h310V7178.47z M4575.05,7178.47v-55
		h-310h-310v55v55h310h310V7178.47z M3316.05,7143.47c62-22,114-42,116-43c3-4-154-447-161-454c-2-2-64-2-138-1l-135,3l95,268
		c53,147,99,267,103,267C3201.05,7183.47,3255.05,7165.47,3316.05,7143.47z M1893.05,6794.47l20-49l-217-92c-119-51-231-99-249-107
		l-33-13l-20,46c-11,26-16,51-12,55c10,10,464,207,479,208C1867.05,6843.47,1881.05,6821.47,1893.05,6794.47z M4225.05,6742.47
		c129-55,239-104,243-108s-1-29-12-55l-20-46l-33,13c-18,8-130,56-249,107l-217,92l20,49c12,27,24,49,27,49
		C3988.05,6843.47,4096.05,6798.47,4225.05,6742.47z M3855.05,6403.47v-140h-930h-930v140v140h930h930V6403.47z"/>
</g>
<path class="st1" d="M244.07,479.36c2.07,0.65,4.75,1.62,7.72,3.11c5.77,2.89,9.7,6.21,11.57,7.91c2.97,2.71,7.25,6.61,10.13,12.92
	c0.64,1.39,2.86,6.62,2.95,15.68c0.16,15.32-6.09,27.99-10.18,34.83c17.48,0.02,34.97,0.04,52.45,0.06
	c-3.27-4.98-7.01-12.17-8.9-21.29c-1.53-7.4-1.26-13.19-1.15-14.91c0.2-3.22,0.43-7.01,2.07-11.69c1.68-4.81,4.17-8.68,6-10.74
	c0.27-0.31,1.2-1.32,2.4-2.54c0.68-0.69,1.77-1.79,3.1-2.96c2.59-2.3,4.92-3.83,6.04-4.53c2.09-1.32,3.76-2.13,5.03-2.75
	c2.39-1.17,5.54-2.51,9.36-3.65c-0.15-5.93-0.3-11.86-0.45-17.79l3.33-31c-28.82,1.68-48.45-22.09-76-22
	c-8.5,0.03-25.51,1.77-29.26,11.04c-1.21,3-0.9,7.95,0.31,17.96c1.66,13.78,3.25,18.8,3.67,29.72
	C244.47,472.1,244.27,476.49,244.07,479.36z"/>
<path class="st2" d="M289.33,614.07"/>
<path class="st2" d="M322.84,490.86"/>
<path class="st2" d="M536.97,458.61"/>
<path class="st2" d="M356.97,658.1"/>
</svg>
